<svg width="185" height="56" viewBox="0 0 185 56" fill="none" xmlns="http://www.w3.org/2000/svg">
<g style="mix-blend-mode:multiply" filter="url(#filter0_d)">
<path d="M16.8953 1C32.7557 1 148.494 1 166.497 1C184.501 1 184.501 47 166.497 47C148.494 47 32.7557 47 16.8953 47C1.0349 47 1.0349 1 16.8953 1Z" fill="white"/>
<path d="M166.497 0.5H166.391H166.282H166.171H166.057H165.942H165.824H165.704H165.582H165.458H165.332H165.203H165.073H164.94H164.805H164.668H164.529H164.388H164.245H164.099H163.952H163.802H163.651H163.497H163.342H163.184H163.024H162.863H162.699H162.533H162.366H162.196H162.024H161.851H161.675H161.498H161.319H161.137H160.954H160.769H160.582H160.393H160.203H160.01H159.816H159.619H159.421H159.221H159.02H158.816H158.611H158.403H158.194H157.984H157.771H157.557H157.341H157.123H156.904H156.682H156.459H156.235H156.008H155.78H155.551H155.319H155.086H154.851H154.615H154.377H154.137H153.896H153.653H153.409H153.163H152.915H152.666H152.415H152.163H151.909H151.654H151.397H151.138H150.878H150.617H150.354H150.089H149.823H149.556H149.287H149.017H148.745H148.472H148.197H147.921H147.644H147.365H147.085H146.803H146.52H146.236H145.95H145.663H145.375H145.085H144.794H144.502H144.208H143.913H143.617H143.319H143.021H142.721H142.419H142.117H141.813H141.508H141.202H140.895H140.586H140.276H139.966H139.653H139.34H139.026H138.71H138.394H138.076H137.757H137.437H137.116H136.794H136.47H136.146H135.821H135.494H135.167H134.838H134.509H134.178H133.846H133.514H133.18H132.846H132.51H132.174H131.836H131.498H131.158H130.818H130.477H130.135H129.792H129.448H129.103H128.758H128.411H128.064H127.715H127.366H127.016H126.666H126.314H125.962H125.609H125.255H124.9H124.544H124.188H123.831H123.473H123.115H122.756H122.396H122.035H121.674H121.312H120.949H120.586H120.222H119.857H119.491H119.125H118.759H118.392H118.024H117.655H117.286H116.917H116.546H116.176H115.804H115.432H115.06H114.687H114.314H113.94H113.565H113.19H112.815H112.439H112.062H111.685H111.308H110.93H110.552H110.173H109.794H109.415H109.035H108.655H108.274H107.893H107.511H107.13H106.748H106.365H105.982H105.599H105.216H104.832H104.448H104.064H103.679H103.295H102.91H102.524H102.139H101.753H101.367H100.981H100.594H100.208H99.8208H99.4338H99.0466H98.6593H98.2718H97.8842H97.4964H97.1085H96.7205H96.3324H95.9442H95.5559H95.1675H94.7791H94.3906H94.002H93.6134H93.2247H92.8361H92.4474H92.0586H91.6699H91.2812H90.8925H90.5039H90.1152H89.7266H89.3381H88.9496H88.5612H88.1729H87.7846H87.3965H87.0084H86.6205H86.2327H85.845H85.4574H85.07H84.6828H84.2957H83.9088H83.5221H83.1356H82.7493H82.3632H81.9773H81.5916H81.2062H80.821H80.4361H80.0514H79.667H79.2829H78.8991H78.5155H78.1323H77.7494H77.3668H76.9846H76.6027H76.2211H75.84H75.4591H75.0787H74.6986H74.319H73.9397H73.5609H73.1824H72.8045H72.4269H72.0498H71.6732H71.297H70.9213H70.5461H70.1713H69.7971H69.4234H69.0502H68.6775H68.3054H67.9338H67.5628H67.1923H66.8224H66.4531H66.0844H65.7163H65.3488H64.9819H64.6156H64.2499H63.8849H63.5206H63.1569H62.7939H62.4315H62.0699H61.7089H61.3487H60.9892H60.6303H60.2723H59.9149H59.5583H59.2025H58.8474H58.4931H58.1396H57.7869H57.435H57.0839H56.7336H56.3841H56.0355H55.6877H55.3408H54.9948H54.6496H54.3053H53.9619H53.6194H53.2778H52.9371H52.5973H52.2585H51.9206H51.5837H51.2477H50.9127H50.5787H50.2456H49.9136H49.5826H49.2525H48.9235H48.5956H48.2687H47.9428H47.618H47.2942H46.9715H46.65H46.3295H46.0101H45.6918H45.3746H45.0586H44.7437H44.4299H44.1173H43.8059H43.4956H43.1866H42.8787H42.572H42.2665H41.9623H41.6592H41.3574H41.0569H40.7576H40.4595H40.1628H39.8673H39.573H39.2801H38.9885H38.6982H38.4093H38.1216H37.8354H37.5504H37.2668H36.9846H36.7038H36.4243H36.1462H35.8696H35.5943H35.3205H35.0481H34.7771H34.5076H34.2396H33.973H33.7078H33.4442H33.1821H32.9214H32.6623H32.4046H32.1485H31.894H31.641H31.3895H31.1396H30.8913H30.6445H30.3993H30.1558H29.9138H29.6735H29.4347H29.1977H28.9622H28.7284H28.4963H28.2658H28.037H27.8099H27.5845H27.3607H27.1387H26.9185H26.6999H26.4831H26.268H26.0547H25.8432H25.6334H25.4254H25.2192H25.0148H24.8122H24.6114H24.4125H24.2154H24.0201H23.8267H23.6351H23.4455H23.2577H23.0717H22.8877H22.7056H22.5254H22.3472H22.1708H21.9964H21.824H21.6535H21.485H21.3184H21.1539H20.9913H20.8308H20.6722H20.5157H20.3612H20.2087H20.0583H19.91H19.7637H19.6195H19.4773H19.3373H19.1994H19.0635H18.9298H18.7982H18.6688H18.5415H18.4163H18.2933H18.1725H18.0539H17.9374H17.8232H17.7111H17.6013H17.4937H17.3883H17.2852H17.1843H17.0857H16.9894H16.8953C12.6413 0.5 9.53556 3.59332 7.51953 7.97865C5.49803 12.3759 4.5 18.2026 4.5 24C4.5 29.7974 5.49803 35.6241 7.51953 40.0213C9.53556 44.4067 12.6413 47.5 16.8953 47.5H16.9894H17.0857H17.1843H17.2852H17.3883H17.4937H17.6013H17.7111H17.8232H17.9374H18.0539H18.1725H18.2933H18.4163H18.5415H18.6688H18.7982H18.9298H19.0635H19.1994H19.3373H19.4773H19.6195H19.7637H19.91H20.0583H20.2087H20.3612H20.5157H20.6722H20.8308H20.9913H21.1539H21.3184H21.485H21.6535H21.824H21.9964H22.1708H22.3472H22.5254H22.7056H22.8877H23.0717H23.2577H23.4455H23.6351H23.8267H24.0201H24.2154H24.4125H24.6114H24.8122H25.0148H25.2192H25.4254H25.6334H25.8432H26.0547H26.268H26.4831H26.6999H26.9185H27.1387H27.3607H27.5845H27.8099H28.037H28.2658H28.4963H28.7284H28.9622H29.1977H29.4347H29.6735H29.9138H30.1558H30.3993H30.6445H30.8913H31.1396H31.3895H31.641H31.894H32.1485H32.4046H32.6623H32.9214H33.1821H33.4442H33.7078H33.973H34.2396H34.5076H34.7771H35.0481H35.3205H35.5943H35.8696H36.1462H36.4243H36.7038H36.9846H37.2668H37.5504H37.8354H38.1216H38.4093H38.6982H38.9885H39.2801H39.573H39.8673H40.1627H40.4595H40.7576H41.0569H41.3574H41.6592H41.9623H42.2665H42.572H42.8787H43.1866H43.4956H43.8059H44.1173H44.4299H44.7437H45.0586H45.3746H45.6918H46.0101H46.3295H46.6499H46.9715H47.2942H47.618H47.9428H48.2687H48.5956H48.9235H49.2525H49.5826H49.9136H50.2456H50.5787H50.9127H51.2477H51.5837H51.9206H52.2585H52.5973H52.9371H53.2778H53.6194H53.9619H54.3053H54.6496H54.9948H55.3408H55.6877H56.0355H56.3841H56.7336H57.0839H57.435H57.7869H58.1396H58.4931H58.8474H59.2025H59.5583H59.9149H60.2723H60.6303H60.9892H61.3487H61.7089H62.0699H62.4315H62.7939H63.1569H63.5206H63.8849H64.2499H64.6156H64.9818H65.3488H65.7163H66.0844H66.4531H66.8224H67.1923H67.5628H67.9338H68.3054H68.6775H69.0502H69.4234H69.7971H70.1713H70.5461H70.9213H71.297H71.6732H72.0498H72.4269H72.8045H73.1824H73.5609H73.9397H74.319H74.6986H75.0787H75.4591H75.84H76.2211H76.6027H76.9846H77.3668H77.7494H78.1323H78.5155H78.8991H79.2829H79.667H80.0514H80.4361H80.821H81.2062H81.5916H81.9773H82.3632H82.7493H83.1356H83.5221H83.9088H84.2957H84.6828H85.07H85.4574H85.845H86.2327H86.6205H87.0084H87.3965H87.7846H88.1729H88.5612H88.9496H89.3381H89.7266H90.1152H90.5039H90.8925H91.2812H91.6699H92.0586H92.4474H92.8361H93.2247H93.6134H94.002H94.3906H94.7791H95.1675H95.5559H95.9442H96.3324H96.7205H97.1085H97.4964H97.8842H98.2718H98.6593H99.0466H99.4338H99.8208H100.208H100.594H100.981H101.367H101.753H102.139H102.524H102.91H103.295H103.679H104.064H104.448H104.832H105.216H105.599H105.982H106.365H106.748H107.13H107.511H107.893H108.274H108.655H109.035H109.415H109.794H110.173H110.552H110.93H111.308H111.685H112.062H112.439H112.815H113.19H113.565H113.94H114.314H114.687H115.06H115.432H115.804H116.176H116.546H116.917H117.286H117.655H118.024H118.392H118.759H119.125H119.491H119.857H120.222H120.586H120.949H121.312H121.674H122.035H122.396H122.756H123.115H123.473H123.831H124.188H124.544H124.9H125.255H125.609H125.962H126.314H126.666H127.016H127.366H127.715H128.064H128.411H128.758H129.103H129.448H129.792H130.135H130.477H130.818H131.158H131.498H131.836H132.174H132.51H132.846H133.18H133.514H133.846H134.178H134.509H134.838H135.167H135.494H135.821H136.146H136.47H136.794H137.116H137.437H137.757H138.076H138.394H138.71H139.026H139.34H139.653H139.966H140.276H140.586H140.895H141.202H141.508H141.813H142.117H142.419H142.721H143.021H143.319H143.617H143.913H144.208H144.502H144.794H145.085H145.375H145.663H145.95H146.236H146.52H146.803H147.085H147.365H147.644H147.921H148.197H148.472H148.745H149.017H149.287H149.556H149.823H150.089H150.354H150.617H150.878H151.138H151.397H151.654H151.909H152.163H152.415H152.666H152.915H153.163H153.409H153.653H153.896H154.137H154.377H154.615H154.851H155.086H155.319H155.551H155.78H156.008H156.235H156.459H156.682H156.904H157.123H157.341H157.557H157.771H157.984H158.194H158.403H158.611H158.816H159.02H159.221H159.421H159.619H159.816H160.01H160.203H160.393H160.582H160.769H160.954H161.137H161.319H161.498H161.675H161.851H162.024H162.196H162.366H162.533H162.699H162.863H163.024H163.184H163.342H163.497H163.651H163.802H163.952H164.099H164.245H164.388H164.529H164.668H164.805H164.94H165.073H165.203H165.332H165.458H165.582H165.704H165.824H165.942H166.057H166.171H166.282H166.391H166.497C171.253 47.5 174.768 44.4503 177.068 40.0438C179.366 35.6403 180.5 29.805 180.5 24C180.5 18.195 179.366 12.3597 177.068 7.95618C174.768 3.54966 171.253 0.5 166.497 0.5Z" stroke="black"/>
</g>
<defs>
<filter id="filter0_d" x="0" y="0" width="185" height="56" filterUnits="userSpaceOnUse" color-interpolation-filters="sRGB">
<feFlood flood-opacity="0" result="BackgroundImageFix"/>
<feColorMatrix in="SourceAlpha" type="matrix" values="0 0 0 0 0 0 0 0 0 0 0 0 0 0 0 0 0 0 127 0"/>
<feOffset dy="4"/>
<feGaussianBlur stdDeviation="2"/>
<feColorMatrix type="matrix" values="0 0 0 0 0 0 0 0 0 0 0 0 0 0 0 0 0 0 0.25 0"/>
<feBlend mode="normal" in2="BackgroundImageFix" result="effect1_dropShadow"/>
<feBlend mode="normal" in="SourceGraphic" in2="effect1_dropShadow" result="shape"/>
</filter>
</defs>
</svg>
